<svg xmlns="http://www.w3.org/2000/svg" width="32" height="32" viewBox="0 0 32 32"><defs><style>.a{fill:none;}.b{fill:#ffc124;}.c{fill:#35b0cb;}.d{fill:#344154;}</style></defs><g transform="translate(-46 -188)"><g transform="translate(-1027 -134)"><circle class="a" cx="16" cy="16" r="16" transform="translate(1073 322)"/><g transform="translate(1081 328)"><rect class="b" width="3.396" height="1.208" transform="translate(12.264 18.604)"/><path class="a" d="M29.6,25.677a.9.9,0,0,0,.6.792H31.3C30.844,25.941,29.561,24.809,29.6,25.677Z" transform="translate(-25.146 -20.507)"/><path class="a" d="M21.3,42.355V33.6h-2v8.755a2.609,2.609,0,0,0,2.6,2.6h2A2.562,2.562,0,0,1,21.3,42.355Z" transform="translate(-18.734 -25.638)"/><path class="a" d="M40.67,16.868V15.019h5.887A2.63,2.63,0,0,0,44.519,14H39.5v3.472a1.6,1.6,0,0,1,.264-.189A4.059,4.059,0,0,1,40.67,16.868Z" transform="translate(-31.311 -13.434)"/><path class="a" d="M22,14a2.609,2.609,0,0,0-2.6,2.6V19.4h2.679a2.911,2.911,0,0,1-.226-1.057c-.113-2.377,2.075-1.623,2.981-1.057.038.038.113.075.151.113V14Z" transform="translate(-18.796 -13.434)"/><path class="b" d="M42.6,18.549c.981-.3,2.151-.264,2.075,1.472a3.992,3.992,0,0,1-.226,1.057h4.6V18.323a2.727,2.727,0,0,0-.566-1.623H42.6Z" transform="translate(-33.242 -15.115)"/><path class="c" d="M24.6,42.417a2.609,2.609,0,0,0,2.6,2.6h1.019V34.153a23.4,23.4,0,0,0-3.094,3.094l.075-2.34A3.707,3.707,0,0,1,26.26,33.7H24.6Z" transform="translate(-22.034 -25.7)"/><path class="d" d="M38.189,16.915a3.558,3.558,0,0,1,.377-.377V13.066h4.981a2.469,2.469,0,0,1,2.038,1.019h.566l.226.868v3.774H41.434c-.038.038-.075.113-.113.151a.651.651,0,0,1-.113.151h5.547V15.708A3.2,3.2,0,0,0,43.547,12.5H38v4.528l.189-.189Z" transform="translate(-30.377 -12.5)"/><path class="d" d="M52.043,17.468l-.226-.868h-.566a2.727,2.727,0,0,1,.566,1.623v2.792H47.251a.946.946,0,0,1-.151.264h4.943V17.468Z" transform="translate(-36.043 -15.053)"/><path class="d" d="M42.7,28.3Z" transform="translate(-33.304 -22.338)"/><path class="d" d="M38,33.3V45.413h2.755v-.566H38.566V33.828a1.6,1.6,0,0,0-.264-.189A.891.891,0,0,0,38,33.3Z" transform="translate(-30.377 -25.451)"/><path class="d" d="M44.253,32.6H49.8v3.019h.566V32H44.1c-.075.075-.189.151-.3.264Z" transform="translate(-33.989 -24.642)"/><path class="d" d="M21.309,18.94a1.464,1.464,0,0,1-.226-.415H18.4V15.77a2.609,2.609,0,0,1,2.6-2.6h2.981v3.4a1.534,1.534,0,0,1,.377.34l.226.226V12.6H21.008A3.2,3.2,0,0,0,17.8,15.808v3.358h3.623l-.113-.226Z" transform="translate(-17.8 -12.562)"/><path class="d" d="M24.177,32.906V43.962H20.97a2.609,2.609,0,0,1-2.6-2.6V32.6h3.66a2.352,2.352,0,0,1,.453-.34h0a1.89,1.89,0,0,1-.3-.264H17.8v9.321a3.2,3.2,0,0,0,3.208,3.208h3.585v-12A5,5,0,0,0,24.177,32.906Z" transform="translate(-17.8 -24.642)"/><path class="d" d="M34.275,34.513l-.075.075V45.494h.189V34.4l-.113.113Z" transform="translate(-28.011 -26.136)"/><g transform="translate(9.887 8.981)"><g transform="translate(2.717 2.038)"><path class="d" d="M51.389,43.474a.178.178,0,0,1-.189-.189v-1.4a.178.178,0,0,1,.189-.189h.566a.757.757,0,0,1,.755.755.189.189,0,0,1-.377,0,.338.338,0,0,0-.34-.34h-.34v1.208A.318.318,0,0,1,51.389,43.474Z" transform="translate(-51.2 -41.7)"/></g><g transform="translate(2.981 4.528)"><path class="d" d="M54.466,52.338H52.089a.189.189,0,0,1,0-.377h2.189a3.915,3.915,0,0,0,.113-.453,11.511,11.511,0,0,0,.528-3.019.2.2,0,0,1,.189-.189.178.178,0,0,1,.189.189,11.121,11.121,0,0,1-.528,3.132,3.018,3.018,0,0,0-.151.566C54.655,52.262,54.579,52.338,54.466,52.338Z" transform="translate(-51.9 -48.3)"/></g><path class="d" d="M46,44.866a.173.173,0,0,1-.189-.151,4.228,4.228,0,0,0-.792-1.7,3.139,3.139,0,0,1-.491-.679A3.816,3.816,0,0,1,44,40.375a.878.878,0,0,1,.868-.868.916.916,0,0,1,.792.528V37.055a.755.755,0,1,1,1.509,0v1.472a.189.189,0,0,1-.377,0V37.055a.34.34,0,0,0-.679,0V41.13a.173.173,0,0,1-.151.189.228.228,0,0,1-.226-.113l-.377-.981a.441.441,0,0,0-.415-.3.436.436,0,0,0-.453.453,3.224,3.224,0,0,0,.491,1.774,4.186,4.186,0,0,0,.453.6,4.067,4.067,0,0,1,.906,1.887c-.113.113-.189.226-.34.226Z" transform="translate(-44 -36.3)"/><g transform="translate(3.887 2.453)"><path class="d" d="M55.545,45.064a.178.178,0,0,1-.189-.189V43.555a.338.338,0,0,0-.34-.34h-.34v1.17a.189.189,0,0,1-.377,0v-1.4a.178.178,0,0,1,.189-.189h.566a.757.757,0,0,1,.755.755v1.321C55.734,44.951,55.658,45.064,55.545,45.064Z" transform="translate(-54.3 -42.8)"/></g><g transform="translate(4.943 3.17)"><path class="d" d="M58.383,46.474a.178.178,0,0,1-.189-.189v-.868a.338.338,0,0,0-.34-.34h-.566a.189.189,0,1,1,0-.377h.528a.757.757,0,0,1,.755.755v.868A.207.207,0,0,1,58.383,46.474Z" transform="translate(-57.1 -44.7)"/></g><g transform="translate(1.396 8.943)"><path class="d" d="M52.153,62.075H47.889a.178.178,0,0,1-.189-.189v-1.7A.178.178,0,0,1,47.889,60h4.264a.178.178,0,0,1,.189.189v1.7A.2.2,0,0,1,52.153,62.075Zm-4.075-.415h3.887V60.377H48.077Z" transform="translate(-47.7 -60)"/></g><g transform="translate(4.566 9.66)"><path class="d" d="M56.44,62.579a.34.34,0,1,1,.34-.34A.365.365,0,0,1,56.44,62.579Zm0-.415c-.038,0-.038,0-.038.038s0,.038.038.038.038,0,.038-.038S56.477,62.164,56.44,62.164Z" transform="translate(-56.1 -61.9)"/></g></g><g transform="translate(2.788 2.959)"><path class="d" d="M33.571,20.627a2,2,0,0,0-1.887-.113h0a4.067,4.067,0,0,0-.981.453.825.825,0,0,1-.189.113h0l-.491.415c-.075.038-.113.113-.189.189l-.226.226c-.038-.075-.113-.113-.151-.189a2.748,2.748,0,0,0-.226-.264,1.978,1.978,0,0,0-.415-.377c-.075-.038-.113-.075-.189-.113-.189-.113-1.774-1.019-2.755-.415a1.8,1.8,0,0,0-.679,1.736,3.329,3.329,0,0,0,.264,1.132h0l.075.151a1.641,1.641,0,0,0,.151.264l.038.038a1.96,1.96,0,0,0,.113.189,6.631,6.631,0,0,0,.792.906h0a.521.521,0,0,1-.151.113A4.1,4.1,0,0,0,25.344,26.4l-.038.038-.075,3.245.566-.642a29.128,29.128,0,0,1,3.057-3.057l.189-.151s.491-.566.679-.528a1.5,1.5,0,0,1,.491.377l.038.038a1.147,1.147,0,0,0,.264.189l.113.075a13.665,13.665,0,0,1,2.34,2.226l.566.642-.075-3.245-.189-.113-.075-.075c-.113-.075-.189-.189-.3-.264L32.7,25h0A4.948,4.948,0,0,0,33.5,24.1a.651.651,0,0,0,.113-.151c.038-.038.075-.113.113-.151a.759.759,0,0,0,.151-.3,3.557,3.557,0,0,0,.264-1.17A1.948,1.948,0,0,0,33.571,20.627Zm-.038,1.66a1.838,1.838,0,0,1-.226.943l-.113.226a.2.2,0,0,0-.075.151v.038A.651.651,0,0,1,33,23.8a5.236,5.236,0,0,1-.717.792c-.075.075-.189.151-.264.226l-.3.264.792.6c.075.075.151.113.226.189l.038,1.472a12.779,12.779,0,0,0-1.849-1.7l-.151-.151c-.075-.038-.151-.113-.226-.151a3.4,3.4,0,0,0-.34-.377,1.379,1.379,0,0,0-.528-.264A.888.888,0,0,0,29,25a5.377,5.377,0,0,0-.453.415c-.038.038-.075.075-.075.113l-.038.038a22.374,22.374,0,0,0-2.566,2.491l.038-1.434a3.613,3.613,0,0,1,.943-1.057,2.88,2.88,0,0,1,.415-.3l.491-.415-.226-.038a2.011,2.011,0,0,1-.755-.491,1.641,1.641,0,0,1-.226-.264l-.34-.491-.226-.34a3.458,3.458,0,0,1-.226-.943,1.335,1.335,0,0,1,.377-1.208c.528-.3,1.585.075,2.151.415.038.038.075.038.151.075a2.441,2.441,0,0,1,.34.3L29,22.1a1.431,1.431,0,0,1,.264.377l.3.415.3-.3h0l.038-.038h0l.038-.038.528-.528a2.882,2.882,0,0,1,.34-.34.789.789,0,0,1,.226-.151,3.559,3.559,0,0,1,.868-.377h0c.34-.113.981-.264,1.321.038C33.457,21.306,33.571,21.722,33.533,22.288Z" transform="translate(-25.189 -20.341)"/><path class="d" d="M40.515,24.6a.924.924,0,0,0-.868.151,8.72,8.72,0,0,0-1.132.981c-.264.264-.264.3-.264.34l-.151.377h.491a3.919,3.919,0,0,0,1.358-.264h0a1.149,1.149,0,0,0,.792-1.057A.511.511,0,0,0,40.515,24.6Zm-.792,1.094h0c-.113.038-.264.075-.377.113a5.849,5.849,0,0,1,.642-.491c.075-.038.113-.075.151-.075C40.138,25.352,40.062,25.54,39.723,25.691Z" transform="translate(-33.228 -22.952)"/><path class="d" d="M31.064,25.721c-1.4-1.4-1.811-1.208-1.962-1.17-.113.038-.3.189-.3.6a1.117,1.117,0,0,0,.792,1.057,3.95,3.95,0,0,0,1.4.264h.491l-.113-.377A2.2,2.2,0,0,0,31.064,25.721Zm-1.208-.038c-.34-.151-.415-.34-.415-.491a4.81,4.81,0,0,1,.792.6C30.083,25.759,29.97,25.721,29.857,25.683Z" transform="translate(-27.437 -22.944)"/></g></g></g></g></svg>