<svg xmlns="http://www.w3.org/2000/svg" width="32" height="32" viewBox="0 0 32 32"><defs><style>.a{fill:none;}.b{fill:#ffc124;}.c{fill:#35b0cb;}.d{fill:#344154;}</style></defs><g transform="translate(-46 -141)"><g transform="translate(-1023 -272)"><circle class="a" cx="16" cy="16" r="16" transform="translate(1069 413)"/><g transform="translate(1061.845 402.868)"><g transform="translate(14.55 19.65)"><rect class="b" width="5.646" height="2.243" transform="translate(0 0)"/></g><g transform="translate(16.251 24.252)"><rect class="c" width="5.724" height="2.862" transform="translate(0 0)"/></g><g transform="translate(15.865 28.042)"><path class="d" d="M27.31,45.373H21.587a.388.388,0,0,1-.387-.387.365.365,0,0,1,.387-.387H27.31a.388.388,0,0,1,.387.387A.365.365,0,0,1,27.31,45.373Z" transform="translate(-21.2 -44.6)"/></g><g transform="translate(15.865 29.55)"><path class="d" d="M27.31,49.273H21.587a.387.387,0,1,1,0-.773H27.31a.387.387,0,1,1,0,.773Z" transform="translate(-21.2 -48.5)"/></g><g transform="translate(15.865 31.058)"><path class="d" d="M27.31,53.173H21.587a.388.388,0,0,1-.387-.387.365.365,0,0,1,.387-.387H27.31a.388.388,0,0,1,.387.387A.365.365,0,0,1,27.31,53.173Z" transform="translate(-21.2 -52.4)"/></g><g transform="translate(21.588 20.191)"><g transform="translate(2.031 0)"><path class="d" d="M46.607,32.421H44.055l-.116-.116a9.706,9.706,0,0,1-2.63-7.7l.039-.309h7.928l.039.309a9.706,9.706,0,0,1-2.63,7.7Zm-2.282-.7H46.3A9.141,9.141,0,0,0,48.657,25H41.966A9.273,9.273,0,0,0,44.325,31.725Z" transform="translate(-41.251 -24.3)"/></g><g transform="translate(3.403 1.392)"><path class="b" d="M46.811,33.276A8.555,8.555,0,0,1,44.8,27.9h5.376a8.629,8.629,0,0,1-2.011,5.376Z" transform="translate(-44.8 -27.9)"/></g><g transform="translate(0 1.547)"><g transform="translate(8.895)"><path class="d" d="M59.348,31.626a.348.348,0,0,1,0-.7A2.179,2.179,0,0,0,61.514,29H60.006a.348.348,0,1,1,0-.7h2.32l-.039.387A3.067,3.067,0,0,1,59.348,31.626Z" transform="translate(-59 -28.3)"/></g><g transform="translate(0 0)"><path class="d" d="M38.978,31.626a3.036,3.036,0,0,1-2.939-2.939L36,28.3h2.32a.348.348,0,1,1,0,.7H36.773a2.212,2.212,0,0,0,2.166,1.934.347.347,0,0,1,.348.348A.3.3,0,0,1,38.978,31.626Z" transform="translate(-36 -28.3)"/></g></g><g transform="translate(3.789 7.425)"><path class="d" d="M50.361,48.876H45.837l-.039-.309a2.341,2.341,0,0,1,.309-1.238,1.333,1.333,0,0,1,.464-.464c.271-.193.619-.5.657-.812a1.5,1.5,0,0,0-.5-1.16l-.155-.116L46.61,43.5h2.9l.039,1.276-.155.116a1.375,1.375,0,0,0-.5,1.16,1.333,1.333,0,0,0,.657.812,1.333,1.333,0,0,1,.464.464,1.989,1.989,0,0,1,.309,1.238Zm-3.829-.7h3.133a1.191,1.191,0,0,0-.193-.464.9.9,0,0,0-.271-.271,1.916,1.916,0,0,1-.967-1.315,2.085,2.085,0,0,1,.619-1.663V44.2H47.306v.271a2.028,2.028,0,0,1,.619,1.663,1.916,1.916,0,0,1-.967,1.315.9.9,0,0,0-.271.271A3.248,3.248,0,0,0,46.533,48.179Z" transform="translate(-45.797 -43.5)"/></g><g transform="translate(2.901 12.105)"><path class="d" d="M49.533,56.3H43.848a.348.348,0,0,1,0-.7h5.685a.348.348,0,1,1,0,.7Z" transform="translate(-43.5 -55.6)"/></g></g><path class="d" d="M28.743,17.6H12.887a.388.388,0,0,0-.387.387V32.915a.388.388,0,0,0,.387.387H14.55a.387.387,0,0,0,0-.773H13.273V18.335H28.356v.619h0a.416.416,0,0,0,.387.309.377.377,0,0,0,.387-.309h0V17.948A.411.411,0,0,0,28.743,17.6Z" transform="translate(0 0)"/><path class="d" d="M32.385,36.767H17.573V24.855h5.878a.412.412,0,0,0,0-.773H17.573V22.573h5.878a.412.412,0,0,0,0-.773H17.187a.388.388,0,0,0-.387.387V37.115a.388.388,0,0,0,.387.387h15.2a.388.388,0,0,0,.387-.387C32.772,36.883,32.617,36.767,32.385,36.767Z" transform="translate(-2.637 -2.576)"/></g></g></g></svg>