<svg xmlns="http://www.w3.org/2000/svg" width="237" height="178" viewBox="0 0 237 178"><defs><style>.a{fill:#ffc124;}.b,.c,.d{fill:none;}.b,.c{stroke:#344154;stroke-miterlimit:10;stroke-width:2px;}.c{stroke-linecap:round;}</style></defs><g transform="translate(-565 -152)"><g transform="translate(-936.999 -1258.539)"><path class="a" d="M1655.6,1473.623v-24.246h-24.246Z"/><path class="a" d="M1583,1524.293v24.246h24.246Z"/><path class="b" d="M1633.825,1549.148H1583v-99.771h24.246"/><path class="b" d="M1631.354,1449.376H1655.6v78"/><line class="b" x2="39.748" transform="translate(1599.425 1478.66)"/><line class="b" x2="39.748" transform="translate(1599.425 1492.395)"/><line class="b" x2="39.748" transform="translate(1599.425 1506.13)"/><line class="b" x2="39.748" transform="translate(1599.425 1519.865)"/><path class="b" d="M1607.245,1445.178v12.406a2.122,2.122,0,0,0,2.122,2.122h.851a2.123,2.123,0,0,0,2.1-1.848l.034-.263a7.43,7.43,0,0,1,7.368-6.469h0a7.429,7.429,0,0,1,7.367,6.469l.035.263a2.123,2.123,0,0,0,2.105,1.848h0a2.122,2.122,0,0,0,2.122-2.122v-12.406a1.639,1.639,0,0,0-1.64-1.639h-20.829A1.639,1.639,0,0,0,1607.245,1445.178Z"/><circle class="b" cx="17.32" cy="17.32" r="17.32" transform="translate(1632.177 1560.323) rotate(-87.195)"/><path class="c" d="M1642.752,1543.8l7,6.241,10.091-12.341"/></g><rect class="d" width="237" height="178" transform="translate(565 152)"/></g></svg>