<?xml version="1.0" encoding="utf-8"?>
<!-- Generator: Adobe Illustrator 23.0.1, SVG Export Plug-In . SVG Version: 6.00 Build 0)  -->
<svg version="1.1" id="Capa_1" xmlns="http://www.w3.org/2000/svg" xmlns:xlink="http://www.w3.org/1999/xlink" x="0px" y="0px"
	 viewBox="0 0 1417.3 1417.3" style="enable-background:new 0 0 1417.3 1417.3;" xml:space="preserve">
<style type="text/css">
	.st0{fill:#1565C0;}
	.st1{fill:#FAFAFA;}
	.st2{fill:#E3E4D8;}
	.st3{fill:#A09893;}
	.st4{fill:#D0CEBD;}
	.st5{fill:#D36A0A;}
	.st6{fill:#FFFFFF;}
	.st7{fill:#C8C1BD;}
	.st8{fill:#FF5722;}
	.st9{fill:#ECEFF1;}
	.st10{fill:#388E3C;}
	.st11{fill:#2E7D32;}
	.st12{fill:#2F9171;}
	.st13{fill:#E9E9E0;}
	.st14{fill:#D9D7CA;}
	.st15{fill:#CC4B4C;}
</style>
<g>
	<path class="st2" d="M1047.1,1148.6H370.2V217.9h524.6l152.3,152.3V1148.6z"/>
	<path class="st4" d="M894.8,217.9v152.3h152.3L894.8,217.9z"/>
	<path class="st12" d="M370.2,894.8h676.9v304.6H370.2V894.8z"/>
	<g>
		<path class="st3" d="M590.2,539.4H471.8c-9.3,0-16.9-7.6-16.9-16.9v-67.7c0-9.3,7.6-16.9,16.9-16.9h118.5
			c9.3,0,16.9,7.6,16.9,16.9v67.7C607.1,531.9,599.6,539.4,590.2,539.4z M488.7,505.6h84.6v-33.8h-84.6V505.6z"/>
		<path class="st3" d="M708.7,539.4H590.2c-9.3,0-16.9-7.6-16.9-16.9v-67.7c0-9.3,7.6-16.9,16.9-16.9h118.5
			c9.3,0,16.9,7.6,16.9,16.9v67.7C725.6,531.9,718,539.4,708.7,539.4z M607.1,505.6h84.6v-33.8h-84.6V505.6z"/>
		<path class="st3" d="M827.1,539.4H708.7c-9.3,0-16.9-7.6-16.9-16.9v-67.7c0-9.3,7.6-16.9,16.9-16.9h118.5
			c9.3,0,16.9,7.6,16.9,16.9v67.7C844,531.9,836.5,539.4,827.1,539.4z M725.6,505.6h84.6v-33.8h-84.6V505.6z"/>
		<path class="st3" d="M945.6,539.4H827.1c-9.3,0-16.9-7.6-16.9-16.9v-67.7c0-9.3,7.6-16.9,16.9-16.9h118.5
			c9.3,0,16.9,7.6,16.9,16.9v67.7C962.5,531.9,954.9,539.4,945.6,539.4z M844,505.6h84.6v-33.8H844V505.6z"/>
		<path class="st3" d="M590.2,607.1H471.8c-9.3,0-16.9-7.6-16.9-16.9v-67.7c0-9.3,7.6-16.9,16.9-16.9h118.5
			c9.3,0,16.9,7.6,16.9,16.9v67.7C607.1,599.5,599.6,607.1,590.2,607.1z M488.7,573.3h84.6v-33.8h-84.6V573.3z"/>
		<path class="st3" d="M708.7,607.1H590.2c-9.3,0-16.9-7.6-16.9-16.9v-67.7c0-9.3,7.6-16.9,16.9-16.9h118.5
			c9.3,0,16.9,7.6,16.9,16.9v67.7C725.6,599.5,718,607.1,708.7,607.1z M607.1,573.3h84.6v-33.8h-84.6V573.3z"/>
		<path class="st3" d="M827.1,607.1H708.7c-9.3,0-16.9-7.6-16.9-16.9v-67.7c0-9.3,7.6-16.9,16.9-16.9h118.5
			c9.3,0,16.9,7.6,16.9,16.9v67.7C844,599.5,836.5,607.1,827.1,607.1z M725.6,573.3h84.6v-33.8h-84.6V573.3z"/>
		<path class="st3" d="M945.6,607.1H827.1c-9.3,0-16.9-7.6-16.9-16.9v-67.7c0-9.3,7.6-16.9,16.9-16.9h118.5
			c9.3,0,16.9,7.6,16.9,16.9v67.7C962.5,599.5,954.9,607.1,945.6,607.1z M844,573.3h84.6v-33.8H844V573.3z"/>
		<path class="st3" d="M590.2,674.8H471.8c-9.3,0-16.9-7.6-16.9-16.9v-67.7c0-9.3,7.6-16.9,16.9-16.9h118.5
			c9.3,0,16.9,7.6,16.9,16.9v67.7C607.1,667.2,599.6,674.8,590.2,674.8z M488.7,641h84.6v-33.8h-84.6V641z"/>
		<path class="st3" d="M708.7,674.8H590.2c-9.3,0-16.9-7.6-16.9-16.9v-67.7c0-9.3,7.6-16.9,16.9-16.9h118.5
			c9.3,0,16.9,7.6,16.9,16.9v67.7C725.6,667.2,718,674.8,708.7,674.8z M607.1,641h84.6v-33.8h-84.6V641z"/>
		<path class="st3" d="M827.1,674.8H708.7c-9.3,0-16.9-7.6-16.9-16.9v-67.7c0-9.3,7.6-16.9,16.9-16.9h118.5
			c9.3,0,16.9,7.6,16.9,16.9v67.7C844,667.2,836.5,674.8,827.1,674.8z M725.6,641h84.6v-33.8h-84.6V641z"/>
		<path class="st3" d="M945.6,674.8H827.1c-9.3,0-16.9-7.6-16.9-16.9v-67.7c0-9.3,7.6-16.9,16.9-16.9h118.5
			c9.3,0,16.9,7.6,16.9,16.9v67.7C962.5,667.2,954.9,674.8,945.6,674.8z M844,641h84.6v-33.8H844V641z"/>
		<path class="st3" d="M590.2,742.5H471.8c-9.3,0-16.9-7.6-16.9-16.9v-67.7c0-9.3,7.6-16.9,16.9-16.9h118.5
			c9.3,0,16.9,7.6,16.9,16.9v67.7C607.1,734.9,599.6,742.5,590.2,742.5z M488.7,708.7h84.6v-33.8h-84.6V708.7z"/>
		<path class="st3" d="M708.7,742.5H590.2c-9.3,0-16.9-7.6-16.9-16.9v-67.7c0-9.3,7.6-16.9,16.9-16.9h118.5
			c9.3,0,16.9,7.6,16.9,16.9v67.7C725.6,734.9,718,742.5,708.7,742.5z M607.1,708.7h84.6v-33.8h-84.6V708.7z"/>
		<path class="st3" d="M827.1,742.5H708.7c-9.3,0-16.9-7.6-16.9-16.9v-67.7c0-9.3,7.6-16.9,16.9-16.9h118.5
			c9.3,0,16.9,7.6,16.9,16.9v67.7C844,734.9,836.5,742.5,827.1,742.5z M725.6,708.7h84.6v-33.8h-84.6V708.7z"/>
		<path class="st3" d="M945.6,742.5H827.1c-9.3,0-16.9-7.6-16.9-16.9v-67.7c0-9.3,7.6-16.9,16.9-16.9h118.5
			c9.3,0,16.9,7.6,16.9,16.9v67.7C962.5,734.9,954.9,742.5,945.6,742.5z M844,708.7h84.6v-33.8H844V708.7z"/>
		<path class="st3" d="M590.2,810.2H471.8c-9.3,0-16.9-7.6-16.9-16.9v-67.7c0-9.3,7.6-16.9,16.9-16.9h118.5
			c9.3,0,16.9,7.6,16.9,16.9v67.7C607.1,802.6,599.6,810.2,590.2,810.2z M488.7,776.3h84.6v-33.8h-84.6V776.3z"/>
		<path class="st3" d="M708.7,810.2H590.2c-9.3,0-16.9-7.6-16.9-16.9v-67.7c0-9.3,7.6-16.9,16.9-16.9h118.5
			c9.3,0,16.9,7.6,16.9,16.9v67.7C725.6,802.6,718,810.2,708.7,810.2z M607.1,776.3h84.6v-33.8h-84.6V776.3z"/>
		<path class="st3" d="M827.1,810.2H708.7c-9.3,0-16.9-7.6-16.9-16.9v-67.7c0-9.3,7.6-16.9,16.9-16.9h118.5
			c9.3,0,16.9,7.6,16.9,16.9v67.7C844,802.6,836.5,810.2,827.1,810.2z M725.6,776.3h84.6v-33.8h-84.6V776.3z"/>
		<path class="st3" d="M945.6,810.2H827.1c-9.3,0-16.9-7.6-16.9-16.9v-67.7c0-9.3,7.6-16.9,16.9-16.9h118.5
			c9.3,0,16.9,7.6,16.9,16.9v67.7C962.5,802.6,954.9,810.2,945.6,810.2z M844,776.3h84.6v-33.8H844V776.3z"/>
	</g>
	<path class="st6" d="M573.3,1148.6h-67.5c-28.1,0-50.9-22.8-50.9-50.9V996.5c0-28.1,22.8-50.9,50.9-50.9h67.5
		c9.3,0,16.9,7.6,16.9,16.9c0,9.3-7.6,16.9-16.9,16.9h-67.5c-9.4,0-17.1,7.7-17.1,17.1v101.2c0,9.4,7.6,17.1,17.1,17.1h67.5
		c9.3,0,16.9,7.6,16.9,16.9C590.2,1141,582.6,1148.6,573.3,1148.6z"/>
	<path class="st6" d="M700.2,1148.6H641c-9.3,0-16.9-7.6-16.9-16.9c0-9.3,7.6-16.9,16.9-16.9h59.2c14,0,25.4-11.4,25.4-25.4
		s-11.4-25.4-25.4-25.4h-16.9c-32.7,0-59.2-26.6-59.2-59.2c0-32.7,26.6-59.2,59.2-59.2h59.2c9.3,0,16.9,7.6,16.9,16.9
		c0,9.3-7.6,16.9-16.9,16.9h-59.2c-14,0-25.4,11.4-25.4,25.4c0,14,11.4,25.4,25.4,25.4h16.9c32.7,0,59.2,26.6,59.2,59.2
		C759.4,1122.1,732.9,1148.6,700.2,1148.6z"/>
	<path class="st6" d="M877.9,1148.6c-6.9,0-13.1-4.2-15.7-10.6l-67.7-169.2c-3.5-8.7,0.7-18.5,9.4-22c8.7-3.5,18.5,0.8,22,9.4
		l52,129.9l52-129.9c3.5-8.7,13.3-12.9,22-9.4c8.7,3.5,12.9,13.3,9.4,22L893.6,1138C891,1144.4,884.8,1148.6,877.9,1148.6z"/>
</g>
</svg>
