<svg xmlns="http://www.w3.org/2000/svg" width="32" height="32" viewBox="0 0 32 32"><defs><style>.a{fill:none;}.b{fill:#344154;}.c{fill:#ffc124;}.d{fill:#35b0cb;}</style></defs><g transform="translate(-46 -51)"><g transform="translate(-1103 -226)"><circle class="a" cx="16" cy="16" r="16" transform="translate(1149 277)"/><g transform="translate(1148.326 277.063)"><g transform="translate(6.674 3.938)"><g transform="translate(6.409 11.083)"><g transform="translate(2.123)"><path class="b" d="M41.871,44.773H39.242l-.121-.121a9.992,9.992,0,0,1-2.71-7.928l.04-.324h8.171l.04.324a9.962,9.962,0,0,1-2.71,7.928Zm-2.346-.688h2.022a9.413,9.413,0,0,0,2.427-6.917H37.1A9.413,9.413,0,0,0,39.525,44.085Z" transform="translate(-36.349 -36.4)"/></g><g transform="translate(3.519 1.456)"><path class="c" d="M41.863,45.542A8.991,8.991,0,0,1,39.8,40h5.542a8.746,8.746,0,0,1-2.063,5.542Z" transform="translate(-39.8 -40)"/></g><g transform="translate(0 1.578)"><g transform="translate(9.182)"><path class="b" d="M54.164,43.738a.364.364,0,1,1,0-.728,2.233,2.233,0,0,0,2.225-1.982H54.811a.364.364,0,0,1,0-.728H57.2l-.04.4A3.064,3.064,0,0,1,54.164,43.738Z" transform="translate(-53.8 -40.3)"/></g><g transform="translate(0 0)"><path class="b" d="M34.174,43.738A3.1,3.1,0,0,1,31.14,40.7l-.04-.4h2.387a.364.364,0,0,1,0,.728H31.909a2.271,2.271,0,0,0,2.225,1.982.363.363,0,0,1,.364.364A.33.33,0,0,1,34.174,43.738Z" transform="translate(-31.1 -40.3)"/></g></g><g transform="translate(3.963 7.645)"><path class="b" d="M45.55,60.842H40.938l-.04-.324a2.276,2.276,0,0,1,.324-1.254,1.394,1.394,0,0,1,.485-.485c.283-.2.647-.526.688-.849a1.533,1.533,0,0,0-.526-1.173l-.121-.121.04-1.335h2.993l.04,1.335-.121.121a1.533,1.533,0,0,0-.526,1.173,1.4,1.4,0,0,0,.688.849,1.394,1.394,0,0,1,.485.485,2.02,2.02,0,0,1,.324,1.254Zm-3.924-.688h3.236a1.246,1.246,0,0,0-.2-.485.945.945,0,0,0-.283-.283,2.137,2.137,0,0,1-1.011-1.335,2.085,2.085,0,0,1,.647-1.7v-.283H42.395v.283a2.085,2.085,0,0,1,.647,1.7,2.011,2.011,0,0,1-1.011,1.335,1.869,1.869,0,0,0-.283.283Z" transform="translate(-40.897 -55.3)"/></g><g transform="translate(3.034 12.458)"><path class="b" d="M44.789,67.928H38.964a.364.364,0,1,1,0-.728h5.865a.363.363,0,0,1,.364.364A.4.4,0,0,1,44.789,67.928Z" transform="translate(-38.6 -67.2)"/></g></g><g transform="translate(4.751 5.013)"><path class="d" d="M27,22.973V27.18a2.622,2.622,0,0,0,2.184-.647,4.022,4.022,0,0,1,2.548-1.092V21.4A7.156,7.156,0,0,0,27,22.973Z" transform="translate(-27 -21.393)"/></g><g transform="translate(9.645)"><path class="b" d="M39.464,11.912a.363.363,0,0,1-.364-.364V9.364a.364.364,0,0,1,.728,0v2.184A.427.427,0,0,1,39.464,11.912Z" transform="translate(-39.1 -9)"/></g><g transform="translate(5.857 0.5)"><path class="b" d="M30.895,13.174a.308.308,0,0,1-.324-.243l-.809-2.225a.346.346,0,0,1,.647-.243l.809,2.225a.33.33,0,0,1-.2.445A.149.149,0,0,1,30.895,13.174Z" transform="translate(-29.736 -10.236)"/></g><g transform="translate(2.358 2.381)"><path class="b" d="M22.912,17.319a.367.367,0,0,1-.283-.121l-1.456-1.739a.344.344,0,1,1,.526-.445l1.456,1.739a.33.33,0,0,1-.04.485A.309.309,0,0,1,22.912,17.319Z" transform="translate(-21.086 -14.886)"/></g><g transform="translate(0 4.755)"><path class="b" d="M17.66,22.675c-.081,0-.121,0-.162-.04l-2.063-1.213a.354.354,0,0,1,.364-.607l2.063,1.213a.339.339,0,0,1,.121.485A.5.5,0,0,1,17.66,22.675Z" transform="translate(-15.256 -20.756)"/></g><g transform="translate(17.533 5.42)"><path class="b" d="M58.964,24.1a.5.5,0,0,1-.324-.162.375.375,0,0,1,.121-.485l1.78-1.011a.354.354,0,0,1,.364.607l-1.739,1.011A.365.365,0,0,1,58.964,24.1Z" transform="translate(-58.6 -22.4)"/></g><g transform="translate(15.585 2.583)"><path class="b" d="M54.156,17.778a.575.575,0,0,1-.243-.081.333.333,0,0,1-.04-.485l1.416-1.7a.344.344,0,0,1,.526.445l-1.375,1.7A.367.367,0,0,1,54.156,17.778Z" transform="translate(-53.786 -15.386)"/></g><g transform="translate(12.648 0.697)"><path class="b" d="M46.878,13.626a.149.149,0,0,1-.121-.04.327.327,0,0,1-.2-.445l.809-2.184a.346.346,0,0,1,.647.243L47.2,13.384A.339.339,0,0,1,46.878,13.626Z" transform="translate(-46.523 -10.723)"/></g><g transform="translate(0.858 4.69)"><path class="b" d="M23.778,40.175a.363.363,0,0,1-.364-.364,11.377,11.377,0,0,0-.162-2.225,1.267,1.267,0,0,0-1.416-1.011l-1.254.121a1.526,1.526,0,0,1-1.213-.485,2.233,2.233,0,0,1-.324-1.861.735.735,0,0,1-.445-.4.661.661,0,0,1,0-.485.627.627,0,0,1-.283-.4,1.393,1.393,0,0,1,.04-.364H18.2a.939.939,0,0,1-.728-.445,1.027,1.027,0,0,1,0-.809l.04-.04,1.052-1.456a2.251,2.251,0,0,0,.364-1.658v-.04a1.12,1.12,0,0,1-.04-.364,7.349,7.349,0,0,1,.2-2.831h0A5.726,5.726,0,0,1,20.7,22.5a7.668,7.668,0,0,1,5.339-1.9h.364v4.611h-.364a3.69,3.69,0,0,0-2.346.971,3.074,3.074,0,0,1-2.427.728,2.85,2.85,0,0,1-1.7-.849,6.555,6.555,0,0,0,0,1.78c0,.121.04.2.04.324v.04a2.888,2.888,0,0,1-.445,2.184l-1.052,1.456c0,.04-.04.121,0,.162a.238.238,0,0,0,.2.081,1.826,1.826,0,0,1,.526.121.574.574,0,0,1,.324.364.456.456,0,0,1-.121.445h0a.72.72,0,0,1,.283.324.479.479,0,0,1-.04.4v.04a.141.141,0,0,0,.081.04.536.536,0,0,1,.4.607,2.015,2.015,0,0,0,.162,1.416.8.8,0,0,0,.647.243l1.213-.121a2.018,2.018,0,0,1,2.184,1.578,12.76,12.76,0,0,1,.162,2.346A.327.327,0,0,1,23.778,40.175Zm-4-15.088c.04.04.04.081.081.162a2.065,2.065,0,0,0,1.537.93,2.3,2.3,0,0,0,1.82-.566,4.4,4.4,0,0,1,2.467-1.133V21.245a6.7,6.7,0,0,0-4.49,1.739A4.533,4.533,0,0,0,19.773,25.087Z" transform="translate(-17.378 -20.596)"/></g></g></g></g></g></svg>