<svg xmlns="http://www.w3.org/2000/svg" width="237" height="178" viewBox="0 0 237 178"><defs><style>.a{fill:#ffc124;}.b,.c,.e,.f{fill:none;}.b,.c,.e{stroke:#344154;stroke-width:2px;}.b,.e{stroke-linecap:round;}.b,.c{stroke-linejoin:round;}.d{fill:#35b0cb;}.e{stroke-miterlimit:10;}</style></defs><g transform="translate(-565 -152)"><g transform="translate(128.251 -122.284)"><g transform="translate(518.644 365.677)"><rect class="a" width="5.539" height="5.539" rx="1.481" transform="translate(0)"/><rect class="a" width="5.539" height="5.539" rx="1.481" transform="translate(8.434)"/><rect class="a" width="5.539" height="5.539" rx="1.481" transform="translate(16.869)"/><rect class="a" width="5.539" height="5.539" rx="1.481" transform="translate(25.303)"/><rect class="a" width="5.539" height="5.539" rx="1.481" transform="translate(33.737)"/><rect class="a" width="5.539" height="5.539" rx="1.481" transform="translate(42.171)"/><rect class="a" width="5.539" height="5.539" rx="1.481" transform="translate(50.606)"/><rect class="a" width="5.539" height="5.539" rx="1.481" transform="translate(59.04)"/><rect class="a" width="5.539" height="5.539" rx="1.481" transform="translate(67.474)"/></g><g transform="translate(535.512 374.235)"><rect class="a" width="5.539" height="5.539" rx="1.481" transform="translate(0 0)"/><rect class="a" width="5.539" height="5.539" rx="1.481" transform="translate(8.434 0)"/><rect class="a" width="5.539" height="5.539" rx="1.481" transform="translate(16.869 0)"/><rect class="a" width="5.539" height="5.539" rx="1.481" transform="translate(25.303 0)"/><rect class="a" width="5.539" height="5.539" rx="1.481" transform="translate(33.737 0)"/></g><g transform="translate(543.947 382.792)"><rect class="a" width="5.539" height="5.539" rx="1.481" transform="translate(0)"/><rect class="a" width="5.539" height="5.539" rx="1.481" transform="translate(8.434)"/><rect class="a" width="5.539" height="5.539" rx="1.481" transform="translate(16.869)"/></g><g transform="translate(573.907 374.957)"><g transform="translate(0 0)"><path class="b" d="M630.583,432.449v-6.2h2.426a2.426,2.426,0,0,1,2.426,2.426" transform="translate(-618.496 -417.38)"/><path class="b" d="M645.8,443.855a48.272,48.272,0,0,1-2.291,13.534,24.691,24.691,0,0,0-.674,2.529H632.411" transform="translate(-619.17 -423.876)"/><path class="b" d="M623.514,421.064v-6.446a2.426,2.426,0,0,0-2.426-2.426h0a2.427,2.427,0,0,0-2.426,2.426v17.963l-1.673-4.353a2.876,2.876,0,0,0-2.685-1.844h0a2.877,2.877,0,0,0-2.877,2.877h0a16.119,16.119,0,0,0,2.26,8.281,18.607,18.607,0,0,0,2.067,2.845,17.838,17.838,0,0,1,3.771,7.848" transform="translate(-611.427 -412.192)"/><path class="b" d="M638.273,435.321v-6.2H640.7a2.426,2.426,0,0,1,2.426,2.426v5.876" transform="translate(-621.333 -418.44)"/><path class="b" d="M645.963,434.035h2.427a2.426,2.426,0,0,1,2.426,2.426v3.771" transform="translate(-624.171 -420.252)"/></g><rect class="b" width="18.814" height="7.467" transform="translate(6.191 39.304)"/><path class="b" d="M644.719,479.986a.7.7,0,1,0-.7.7A.7.7,0,0,0,644.719,479.986Z" transform="translate(-623.193 -436.949)"/></g><path class="c" d="M598.537,411.38V391.515h-81.1V411.38" transform="translate(-2.838 -29.605)"/><line class="b" x2="39.653" transform="translate(535.25 407.398)"/><g transform="translate(509.749 374.957)"><g transform="translate(0 0)"><path class="b" d="M529.981,432.449v-6.2h-2.426a2.426,2.426,0,0,0-2.426,2.426" transform="translate(-515.424 -417.38)"/><path class="b" d="M509.775,443.855a48.27,48.27,0,0,0,2.291,13.534,24.691,24.691,0,0,1,.674,2.529h10.422" transform="translate(-509.759 -423.876)"/><path class="b" d="M532.819,421.064v-6.446a2.426,2.426,0,0,1,2.426-2.426h0a2.427,2.427,0,0,1,2.426,2.426v17.963l1.673-4.353a2.876,2.876,0,0,1,2.685-1.844h0a2.877,2.877,0,0,1,2.877,2.877h0a16.119,16.119,0,0,1-2.26,8.281,18.594,18.594,0,0,1-2.067,2.845,17.838,17.838,0,0,0-3.771,7.848" transform="translate(-518.262 -412.192)"/><path class="b" d="M522.291,435.321v-6.2h-2.426a2.426,2.426,0,0,0-2.426,2.426v5.876" transform="translate(-512.587 -418.44)"/><path class="b" d="M514.6,434.035h-2.426a2.426,2.426,0,0,0-2.426,2.426v3.771" transform="translate(-509.749 -420.252)"/></g><rect class="b" width="18.814" height="7.467" transform="translate(20.453 46.771) rotate(180)"/><path class="b" d="M517.861,479.986a.7.7,0,1,1,.7.7A.7.7,0,0,1,517.861,479.986Z" transform="translate(-512.742 -436.949)"/></g><path class="c" d="M572.708,353.953h9.814a5.528,5.528,0,0,1,5.527,5.528h0a5.528,5.528,0,0,1-5.527,5.528H561.317a3.95,3.95,0,0,0-3.951,3.95h0a3.95,3.95,0,0,0,3.951,3.95h9.032a2.373,2.373,0,0,1,2.373,2.373v2.373" transform="translate(-17.571 -15.745)"/><path class="d" d="M592.349,321.941h4.483v4.483h-4.483Z" transform="translate(-30.48 -3.932)"/><path class="d" d="M592.349,336.15h4.483v4.483h-4.483Z" transform="translate(-30.48 -9.176)"/><path class="d" d="M599.454,329.045h4.483v4.483h-4.483Z" transform="translate(-33.101 -6.554)"/><path class="d" d="M585.245,329.045h4.483v4.483h-4.483Z" transform="translate(-27.858 -6.554)"/><path class="d" d="M620.768,321.941h4.483v4.483h-4.483Z" transform="translate(-40.966 -3.932)"/><path class="d" d="M620.768,336.15h4.483v4.483h-4.483Z" transform="translate(-40.966 -9.176)"/><path class="d" d="M627.872,329.045h4.483v4.483h-4.483Z" transform="translate(-43.588 -6.554)"/><path class="d" d="M613.663,329.045h4.483v4.483h-4.483Z" transform="translate(-38.345 -6.554)"/><path class="d" d="M563.931,321.941h4.483v4.483h-4.483Z" transform="translate(-19.993 -3.932)"/><path class="d" d="M563.931,336.15h4.483v4.483h-4.483Z" transform="translate(-19.993 -9.176)"/><path class="d" d="M571.036,329.045h4.483v4.483h-4.483Z" transform="translate(-22.615 -6.554)"/><path class="d" d="M556.827,329.045h4.483v4.483h-4.483Z" transform="translate(-17.372 -6.554)"/><path class="d" d="M535.513,321.941H540v4.483h-4.483Z" transform="translate(-9.507 -3.932)"/><path class="d" d="M535.513,336.15H540v4.483h-4.483Z" transform="translate(-9.507 -9.176)"/><path class="d" d="M542.618,329.045H547.1v4.483h-4.483Z" transform="translate(-12.129 -6.554)"/><path class="d" d="M528.408,329.045h4.483v4.483h-4.483Z" transform="translate(-6.885 -6.554)"/><path class="e" d="M561.665,338.182H512.318a2.084,2.084,0,0,1-2.084-2.084V313.368a2.084,2.084,0,0,1,2.084-2.084H598.6a1.749,1.749,0,0,1,1.749,1.749V335.2a2.985,2.985,0,0,1-2.986,2.986H583.421" transform="translate(-0.179)"/></g><rect class="f" width="237" height="178" transform="translate(565 152)"/></g></svg>