<svg xmlns="http://www.w3.org/2000/svg" width="60" height="60" viewBox="0 0 60 60"><defs><style>.a{fill:#344154;}.b{fill:none;}.c{fill:#ffc524;}</style></defs><g transform="translate(-45 -559)"><path class="a" d="M56.159,60.6a.878.878,0,0,0,.877-.878v-9.1a.878.878,0,1,0-1.748,0v9.1a.878.878,0,0,0,.87.878Z" transform="translate(31.179 546.585)"/><path class="a" d="M50.07,57.586h9.1a.877.877,0,1,0,0-1.748h-9.1a.877.877,0,1,0,0,1.748Z" transform="translate(32.722 545.041)"/><path class="b" d="M38.72,48.79l-1,1.792H36.208l-1-1.792,1.08-.937.675-.592Z" transform="translate(36.198 547.185)"/><path class="b" d="M31.588,47.558,31.01,40.53l3.93,4.11Z" transform="translate(37.248 548.867)"/><path class="b" d="M40.372,45.967,38.85,44.64l3.93-4.11L42.2,47.558l-1.275-1.11h0Z" transform="translate(35.287 548.867)"/><path class="b" d="M35.747,31.165c-3,0-5.407-3.045-5.407-6.8s2.423-6.75,5.407-6.75,5.408,3.045,5.408,6.787S38.732,31.165,35.747,31.165Z" transform="translate(37.415 554.595)"/><path class="c" d="M17.21,57.18H28.647a.607.607,0,0,1,0-.165l1.935-7.5-.922-1.658L28.01,49.3a.705.705,0,0,1-.443.165.6.6,0,0,1-.255-.052.675.675,0,0,1-.42-.57l-.75-9.12L19,44.393c-.45,4.927-1.118,12.225-1.118,12.787Zm4.38-4.927a.675.675,0,0,1,.675-.675h4.5a.675.675,0,0,1,0,1.35H22.3a.675.675,0,0,1-.713-.7Z" transform="translate(40.698 549.07)"/><path class="c" d="M40.05,49.455l.915-1.658,1.658,1.44a.705.705,0,0,0,.442.165.6.6,0,0,0,.255-.052.675.675,0,0,0,.42-.57l.75-9.12,6,3.9a11.1,11.1,0,0,0-7.193,13.6H41.993a.608.608,0,0,0,0-.165Z" transform="translate(34.987 549.085)"/><path class="a" d="M37.55,47.26l1.755,1.53h0L37.55,47.26Z" transform="translate(35.612 547.185)"/><path class="a" d="M43.408,48.2l.75-9.09.63.412-.713,9.12a.675.675,0,0,1-.42.57.6.6,0,0,1-.255.053.705.705,0,0,1-.442-.165L41.3,47.66l.375-.675Z" transform="translate(34.675 549.222)"/><path class="a" d="M42.785,37.391a.668.668,0,0,1,.75-.15l.09.053h0l7.972,5.25c-.322.053-.645.12-.96.195s-.562.15-.832.24l-6-3.9-.63-.413-.75,9.09L40.67,46.541v-.06a.668.668,0,0,0-.143-.833l1.275,1.11.578-7.02L38.517,43.8l1.5,1.327-2.032-1.77-.465-.487Z" transform="translate(35.62 549.704)"/><path class="a" d="M38.912,53.3h.12a.675.675,0,0,0,.472-.33l.128-.233,1.935,7.5a.607.607,0,0,1,0,.165.66.66,0,0,1-.495.653.622.622,0,0,1-.165,0,.675.675,0,0,1-.652-.51L38.38,53.273Z" transform="translate(35.405 545.815)"/><path class="a" d="M17.472,43.3a.7.7,0,0,1,.3-.5l8.362-5.475h0a.675.675,0,0,0-.307.615l.045.525.045.608-7.14,4.673c-.45,4.98-1.118,12.277-1.118,12.84H16.31C16.31,55.763,17.353,44.58,17.472,43.3Z" transform="translate(40.923 549.67)"/><path class="a" d="M37.325,47.26l-.675.592.675-.592Z" transform="translate(35.838 547.185)"/><path class="a" d="M35.055,43.361l.465-.488-5.25-5.482a.667.667,0,0,0-.75-.15l-.09.052.75,1.125-.323.21.75,9.09L32.362,46.5v-.06a.668.668,0,0,1,.142-.832Zm-4.448-3.668,3.937,4.1-3.352,2.925Z" transform="translate(37.643 549.704)"/><path class="a" d="M30.535,48.2l1.755-1.215.368.675-1.65,1.44a.705.705,0,0,1-.442.165.6.6,0,0,1-.255-.052.675.675,0,0,1-.42-.57l-.75-9.12.63-.412Z" transform="translate(37.715 549.222)"/><path class="a" d="M37.845,45.228a.682.682,0,0,0-.885,0h0l.465-.488.465.488Z" transform="translate(35.76 547.815)"/><rect class="a" transform="translate(73.162 594.45) rotate(-45)"/><path class="a" d="M29.759,38.665l-.045-.592-.63.4-.045-.525a.675.675,0,0,1,.308-.615l.75,1.125Z" transform="translate(37.741 549.667)"/><path class="a" d="M29.7,38.32l.045.592-.63.412-.045-.607Z" transform="translate(37.732 549.42)"/><path class="a" d="M41.435,48.26h0l-.555-.48Z" transform="translate(34.78 547.055)"/><path class="a" d="M35.795,50.8a.66.66,0,0,0-.555.113l-.75-1.463,1.613-1.4-1.073.937,1,1.792h1.5l1-1.792.533.465-.75,1.463a.645.645,0,0,0-.548-.113.675.675,0,0,0-.488.825l.128.5H36.147l.135-.5a.675.675,0,0,0-.488-.825Z" transform="translate(36.378 546.987)"/><path class="a" d="M35.073,51.382a.653.653,0,0,0-.262.375l-.068.262-.923-1.657.51-.443Z" transform="translate(36.545 546.52)"/><path class="a" d="M39.947,52.02l-.037-.263a.63.63,0,0,0-.27-.375l.75-1.463.5.443Z" transform="translate(35.09 546.52)"/><path class="a" d="M37.55,46.807l.443-.382a.66.66,0,0,0,.232-.48.683.683,0,0,0-.187-.495h0l2.032,1.77.555.48a.668.668,0,0,1,.142.833v.06l-.63-.405-.323.615-.532-.465h0Z" transform="translate(35.612 547.638)"/><path class="a" d="M41.478,49.482l-.375.675-.5-.443.323-.615Z" transform="translate(34.85 546.725)"/><path class="a" d="M38.7,51.714a.645.645,0,0,1,.547.113l-.382.75.12.457h-.645l-.127-.5a.675.675,0,0,1,.487-.818Z" transform="translate(35.452 546.076)"/><path class="a" d="M39.783,52.243l.068.262-.127.233a.675.675,0,0,1-.472.33l-.12-.458.382-.75a.63.63,0,0,1,.27.383Z" transform="translate(35.217 546.035)"/><path class="a" d="M33.3,48.563V48.5a.668.668,0,0,1,.142-.833l2.588-2.25h0a.682.682,0,0,0-.187.495.66.66,0,0,0,.233.48l.442.383-.675.593-1.665,1.425-.323-.615Z" transform="translate(36.696 547.645)"/><path class="a" d="M33.885,49.1l.322.615-.5.443-.375-.675Z" transform="translate(36.667 546.725)"/><path class="a" d="M38.01,45.891a.66.66,0,0,1-.233.48l-.443.382h0l-.412-.382a.66.66,0,0,1-.233-.48.682.682,0,0,1,.188-.495h0a.682.682,0,0,1,.885,0h0a.682.682,0,0,1,.248.495Z" transform="translate(35.828 547.692)"/><path class="a" d="M35,53.47h.637l-1.868,7.275a.675.675,0,0,1-.653.51.623.623,0,0,1-.165,0,.66.66,0,0,1-.495-.652h.66Z" transform="translate(36.885 545.633)"/><path class="a" d="M34.4,52.72l.127.233a.66.66,0,0,0,.472.33L33.118,60.43h-.66a.608.608,0,0,1,0-.165Z" transform="translate(36.887 545.82)"/><path class="a" d="M35.76,53.024l.12-.458-.39-.75a.66.66,0,0,1,.555-.113.675.675,0,0,1,.488.825l-.135.5h-.525Z" transform="translate(36.128 546.079)"/><path class="a" d="M35.38,51.87l.39.75-.12.458a.66.66,0,0,1-.472-.33l-.127-.232.068-.263a.652.652,0,0,1,.262-.383Z" transform="translate(36.237 546.032)"/><path class="a" d="M23.775,55.5h4.5a.675.675,0,0,1,0,1.35h-4.5a.675.675,0,1,1,0-1.35Z" transform="translate(39.225 545.125)"/><path class="a" d="M42.06,23.905c0-4.5-3-8.145-6.75-8.145s-6.75,3.66-6.75,8.145,3,8.145,6.75,8.145S42.06,28.4,42.06,23.905Zm-1.35,0c0,3.75-2.422,6.8-5.407,6.8s-5.407-3.045-5.407-6.8,2.422-6.75,5.407-6.75S40.71,20.163,40.71,23.905Z" transform="translate(37.86 555.06)"/><rect class="b" width="60" height="60" transform="translate(45 559)"/></g></svg>