<svg id="Layer_1" data-name="Layer 1" xmlns="http://www.w3.org/2000/svg" viewBox="0 0 80 80"><defs><style>.cls-1{fill:none;}.cls-2{fill:#34aec9;}.cls-3{fill:#fdbf24;}.cls-4{fill:#344154;}</style></defs><title>Icons for menu</title><rect class="cls-1" width="80" height="80"/><path class="cls-2" d="M32.75,21.41v4h4A5,5,0,0,0,32.75,21.41Z"/><path class="cls-3" d="M46.73,39.55V63.24H62.2V39.55Zm11.59,7.07H50.71V43.74h7.61Z"/><path class="cls-4" d="M16.73,65a1.5,1.5,0,0,1-.7-1.43q0-23.53,0-47.06c0-1.19.32-1.51,1.51-1.51H40.64a2.49,2.49,0,0,1,.72.08,1,1,0,0,1,.7,1,1,1,0,0,1-.85.93,5.08,5.08,0,0,1-.68,0H18.15V62.92H42.08a1,1,0,0,1,1,.77,1,1,0,0,1-.6,1.21l-.17.09Z"/><path class="cls-4" d="M47.88,65a3.2,3.2,0,0,1-2.3-1.71,4.22,4.22,0,0,1-.35-1.6q0-10.24,0-20.5a3.08,3.08,0,0,1,3.28-3.26q6.06,0,12.11,0A3.11,3.11,0,0,1,64,41.28q0,10.19,0,20.36a3.11,3.11,0,0,1-2.44,3.27.83.83,0,0,0-.16.09Zm14-13.53h0V41.37c0-1-.35-1.37-1.39-1.37H48.67c-1,0-1.37.37-1.37,1.39q0,10.06,0,20.11c0,1,.37,1.42,1.4,1.42H60.45c1.06,0,1.41-.35,1.41-1.39Q61.88,56.49,61.87,51.47Z"/><path class="cls-4" d="M22.3,58.75H41.67a3,3,0,0,1,.67.06,1,1,0,0,1,.76,1,1,1,0,0,1-.89.94,3.08,3.08,0,0,1-.53,0H21.23a1,1,0,0,1-1-1c0-.44,0-.88,0-1.32V43.57c0-1,.33-1.47,1-1.48s1.05.5,1.05,1.51q0,7.26,0,14.54Z"/><path class="cls-4" d="M32.56,31.67H28.69a1,1,0,0,1-1.13-.8A1,1,0,0,1,28,29.75a1.8,1.8,0,0,1,.69-.17c1.61,0,3.23,0,4.84,0,.86,0,1.25.45,1.22,1.33a7.29,7.29,0,1,1-7.49-7.57,1.09,1.09,0,0,1,1.24,1c.06.61-.42,1.09-1.2,1.12a5.2,5.2,0,0,0-3.17,9.16A5.19,5.19,0,0,0,32.52,32C32.54,31.9,32.54,31.82,32.56,31.67Z"/><path class="cls-4" d="M46.27,18.64V22.3c.35,0,.67,0,1,0a1,1,0,0,1,1.07,1,1.06,1.06,0,0,1-1.09,1c-.66,0-1.33,0-2,0a1,1,0,0,1-1.06-1.1c0-2.41,0-4.82,0-7.22a1,1,0,0,1,1.74-.77c.11.09.21.2.32.3Q49.61,19,53,22.34a1.76,1.76,0,0,1,.55,1.3c0,3.63,0,7.26,0,10.89,0,.8-.38,1.27-1,1.29a1,1,0,0,1-1-.85,4.43,4.43,0,0,1,0-.63q0-5.06,0-10.11a1,1,0,0,0-.21-.65c-1.58-1.62-3.19-3.21-4.79-4.81A.81.81,0,0,0,46.27,18.64Z"/><path class="cls-4" d="M34.77,27.5H31.89a1.11,1.11,0,0,1-1.27-1.25c0-1.94,0-3.87,0-5.81,0-.89.42-1.28,1.3-1.25a7.27,7.27,0,0,1,7,7.1A1.07,1.07,0,0,1,37.8,27.5C36.79,27.51,35.78,27.5,34.77,27.5Zm-2-6.09v4h4A5,5,0,0,0,32.75,21.41Z"/><path class="cls-4" d="M41.07,42.11h2V56.64h-2Z"/><path class="cls-4" d="M36.9,47.33h2v9.31h-2Z"/><path class="cls-4" d="M28.57,48.35h2v8.29h-2Z"/><path class="cls-4" d="M32.75,50.45h2v6.19h-2Z"/><path class="cls-4" d="M26.44,56.67c-.63,0-1.2,0-1.76,0-.11,0-.3-.19-.3-.3,0-1.26,0-2.53,0-3.82h2.07Z"/><path class="cls-4" d="M43.12,29.61h2.07v2.06c-.63,0-1.24,0-1.85,0-.08,0-.21-.16-.21-.25C43.11,30.83,43.12,30.25,43.12,29.61Z"/><path class="cls-4" d="M39,31.64v-2h2v2Z"/><path class="cls-4" d="M49.34,29.61v2h-2v-2Z"/><path class="cls-4" d="M54.57,48.33H50.71c-1,0-1.33-.37-1.34-1.32,0-1.2,0-2.41,0-3.61,0-.93.4-1.32,1.35-1.32h7.71c1,0,1.36.38,1.36,1.35,0,1.2,0,2.41,0,3.61,0,.9-.38,1.28-1.27,1.29-1.32,0-2.63,0-4,0Zm3.12-4.13H51.5v2h6.19Z"/><path class="cls-4" d="M49.39,56.63V54.58c.63,0,1.25,0,1.86,0,.07,0,.21.19.21.29,0,.57,0,1.13,0,1.75Z"/><path class="cls-4" d="M51.43,52.49h-2v-2h2Z"/><path class="cls-4" d="M55.59,54.61v2h-2v-2Z"/><path class="cls-4" d="M57.75,56.64v-2h2v2Z"/><path class="cls-4" d="M51.45,58.78v2H49.4v-2Z"/><path class="cls-4" d="M55.6,50.46v2h-2v-2Z"/><path class="cls-4" d="M59.78,50.46v2h-2v-2Z"/><path class="cls-4" d="M55.6,58.79v2h-2v-2Z"/><path class="cls-4" d="M57.74,60.79v-2h2v2Z"/></svg>